<mxfile host="app.diagrams.net" agent="Mozilla/5.0 (Windows NT 10.0; Win64; x64) AppleWebKit/537.36 (KHTML, like Gecko) Chrome/131.0.0.0 Safari/537.36" version="26.0.4">
  <diagram name="第 1 页" id="iu0wJ5g2TszM2J1A6xG7">
    <mxGraphModel dx="1444" dy="749" grid="1" gridSize="10" guides="1" tooltips="1" connect="1" arrows="1" fold="1" page="1" pageScale="1" pageWidth="850" pageHeight="1100" math="0" shadow="0">
      <root>
        <mxCell id="0" />
        <mxCell id="1" parent="0" />
        <mxCell id="_TCGK150xfuwsQTXN8Ev-1" value="前端" style="swimlane;html=1;childLayout=stackLayout;startSize=20;rounded=0;shadow=0;labelBackgroundColor=none;strokeWidth=1;fontFamily=Verdana;fontSize=20;align=center;" vertex="1" parent="1">
          <mxGeometry x="70" y="40" width="800" height="750" as="geometry" />
        </mxCell>
        <mxCell id="_TCGK150xfuwsQTXN8Ev-2" value="View" style="swimlane;html=1;startSize=20;" vertex="1" parent="_TCGK150xfuwsQTXN8Ev-1">
          <mxGeometry y="20" width="160" height="730" as="geometry" />
        </mxCell>
        <mxCell id="_TCGK150xfuwsQTXN8Ev-3" value="&lt;font style=&quot;font-size: 15px;&quot;&gt;FindAll&lt;/font&gt;" style="rounded=1;whiteSpace=wrap;html=1;shadow=0;labelBackgroundColor=none;strokeWidth=1;fontFamily=Verdana;fontSize=20;align=center;" vertex="1" parent="_TCGK150xfuwsQTXN8Ev-2">
          <mxGeometry x="20" y="65" width="100" height="60" as="geometry" />
        </mxCell>
        <mxCell id="_TCGK150xfuwsQTXN8Ev-4" value="&lt;font style=&quot;font-size: 15px;&quot;&gt;InsertOne&lt;/font&gt;" style="rounded=1;whiteSpace=wrap;html=1;shadow=0;labelBackgroundColor=none;strokeWidth=1;fontFamily=Verdana;fontSize=20;align=center;" vertex="1" parent="_TCGK150xfuwsQTXN8Ev-2">
          <mxGeometry x="20" y="155" width="100" height="60" as="geometry" />
        </mxCell>
        <mxCell id="_TCGK150xfuwsQTXN8Ev-5" value="DeleteStudent" style="rounded=1;whiteSpace=wrap;html=1;shadow=0;labelBackgroundColor=none;strokeWidth=1;fontFamily=Verdana;fontSize=10;align=center;" vertex="1" parent="_TCGK150xfuwsQTXN8Ev-2">
          <mxGeometry x="20" y="365" width="100" height="60" as="geometry" />
        </mxCell>
        <mxCell id="_TCGK150xfuwsQTXN8Ev-6" value="UpdateStudent" style="rounded=1;whiteSpace=wrap;html=1;shadow=0;labelBackgroundColor=none;strokeWidth=1;fontFamily=Verdana;fontSize=12;align=center;" vertex="1" parent="_TCGK150xfuwsQTXN8Ev-2">
          <mxGeometry x="20" y="260" width="100" height="60" as="geometry" />
        </mxCell>
        <mxCell id="_TCGK150xfuwsQTXN8Ev-7" value="" style="edgeStyle=none;orthogonalLoop=1;jettySize=auto;html=1;rounded=0;shape=flexArrow;width=18.75;endSize=9.475;" edge="1" parent="_TCGK150xfuwsQTXN8Ev-2">
          <mxGeometry width="80" relative="1" as="geometry">
            <mxPoint x="130" y="250" as="sourcePoint" />
            <mxPoint x="180" y="250" as="targetPoint" />
          </mxGeometry>
        </mxCell>
        <mxCell id="_TCGK150xfuwsQTXN8Ev-8" value="States" style="swimlane;html=1;startSize=20;" vertex="1" parent="_TCGK150xfuwsQTXN8Ev-1">
          <mxGeometry x="160" y="20" width="160" height="730" as="geometry" />
        </mxCell>
        <mxCell id="_TCGK150xfuwsQTXN8Ev-9" value="students" style="rounded=1;whiteSpace=wrap;html=1;shadow=0;labelBackgroundColor=none;strokeWidth=1;fontFamily=Verdana;fontSize=15;align=center;" vertex="1" parent="_TCGK150xfuwsQTXN8Ev-8">
          <mxGeometry x="30" y="65" width="100" height="60" as="geometry" />
        </mxCell>
        <mxCell id="_TCGK150xfuwsQTXN8Ev-10" value="&lt;font style=&quot;font-size: 15px;&quot;&gt;searchName&lt;/font&gt;" style="rounded=1;whiteSpace=wrap;html=1;shadow=0;labelBackgroundColor=none;strokeWidth=1;fontFamily=Verdana;fontSize=8;align=center;" vertex="1" parent="_TCGK150xfuwsQTXN8Ev-8">
          <mxGeometry x="30" y="150" width="100" height="60" as="geometry" />
        </mxCell>
        <mxCell id="_TCGK150xfuwsQTXN8Ev-11" value="&lt;font style=&quot;font-size: 10px;&quot;&gt;setSearchAbsences&lt;/font&gt;" style="rounded=1;whiteSpace=wrap;html=1;shadow=0;labelBackgroundColor=none;strokeWidth=1;fontFamily=Verdana;fontSize=8;align=center;" vertex="1" parent="_TCGK150xfuwsQTXN8Ev-8">
          <mxGeometry x="30" y="240" width="100" height="60" as="geometry" />
        </mxCell>
        <mxCell id="_TCGK150xfuwsQTXN8Ev-12" value="&lt;font style=&quot;font-size: 15px;&quot;&gt;newStudent&lt;/font&gt;" style="rounded=1;whiteSpace=wrap;html=1;shadow=0;labelBackgroundColor=none;strokeWidth=1;fontFamily=Verdana;fontSize=8;align=center;" vertex="1" parent="_TCGK150xfuwsQTXN8Ev-8">
          <mxGeometry x="30" y="320" width="100" height="60" as="geometry" />
        </mxCell>
        <mxCell id="_TCGK150xfuwsQTXN8Ev-13" value="searchSid" style="rounded=1;whiteSpace=wrap;html=1;shadow=0;labelBackgroundColor=none;strokeWidth=1;fontFamily=Verdana;fontSize=15;align=center;" vertex="1" parent="_TCGK150xfuwsQTXN8Ev-8">
          <mxGeometry x="30" y="410" width="100" height="60" as="geometry" />
        </mxCell>
        <mxCell id="_TCGK150xfuwsQTXN8Ev-14" value="selectedStudent" style="rounded=1;whiteSpace=wrap;html=1;shadow=0;labelBackgroundColor=none;strokeWidth=1;fontFamily=Verdana;fontSize=12;align=center;" vertex="1" parent="_TCGK150xfuwsQTXN8Ev-8">
          <mxGeometry x="30" y="500" width="100" height="60" as="geometry" />
        </mxCell>
        <mxCell id="_TCGK150xfuwsQTXN8Ev-15" value="response" style="rounded=1;whiteSpace=wrap;html=1;shadow=0;labelBackgroundColor=none;strokeWidth=1;fontFamily=Verdana;fontSize=15;align=center;" vertex="1" parent="_TCGK150xfuwsQTXN8Ev-8">
          <mxGeometry x="30" y="600" width="100" height="60" as="geometry" />
        </mxCell>
        <mxCell id="_TCGK150xfuwsQTXN8Ev-16" value="" style="edgeStyle=none;orthogonalLoop=1;jettySize=auto;html=1;rounded=0;shape=flexArrow;width=18.75;endSize=9.475;" edge="1" parent="_TCGK150xfuwsQTXN8Ev-8">
          <mxGeometry width="80" relative="1" as="geometry">
            <mxPoint x="140" y="250" as="sourcePoint" />
            <mxPoint x="180" y="250" as="targetPoint" />
          </mxGeometry>
        </mxCell>
        <mxCell id="_TCGK150xfuwsQTXN8Ev-17" value="Event Queue" style="swimlane;html=1;startSize=20;" vertex="1" parent="_TCGK150xfuwsQTXN8Ev-1">
          <mxGeometry x="320" y="20" width="160" height="730" as="geometry" />
        </mxCell>
        <mxCell id="_TCGK150xfuwsQTXN8Ev-18" value="input:onChange" style="rounded=1;whiteSpace=wrap;html=1;shadow=0;labelBackgroundColor=none;strokeWidth=1;fontFamily=Verdana;fontSize=11;align=center;" vertex="1" parent="_TCGK150xfuwsQTXN8Ev-17">
          <mxGeometry x="30" y="100" width="100" height="60" as="geometry" />
        </mxCell>
        <mxCell id="_TCGK150xfuwsQTXN8Ev-19" value="input:onKeyDown" style="rounded=1;whiteSpace=wrap;html=1;shadow=0;labelBackgroundColor=none;strokeWidth=1;fontFamily=Verdana;fontSize=11;align=center;" vertex="1" parent="_TCGK150xfuwsQTXN8Ev-17">
          <mxGeometry x="30" y="430" width="100" height="60" as="geometry" />
        </mxCell>
        <mxCell id="_TCGK150xfuwsQTXN8Ev-20" value="button:onClick" style="rounded=1;whiteSpace=wrap;html=1;shadow=0;labelBackgroundColor=none;strokeWidth=1;fontFamily=Verdana;fontSize=11;align=center;" vertex="1" parent="_TCGK150xfuwsQTXN8Ev-17">
          <mxGeometry x="30" y="310" width="100" height="60" as="geometry" />
        </mxCell>
        <mxCell id="_TCGK150xfuwsQTXN8Ev-21" value="form:onSubmit" style="rounded=1;whiteSpace=wrap;html=1;shadow=0;labelBackgroundColor=none;strokeWidth=1;fontFamily=Verdana;fontSize=11;align=center;" vertex="1" parent="_TCGK150xfuwsQTXN8Ev-17">
          <mxGeometry x="30" y="200" width="100" height="60" as="geometry" />
        </mxCell>
        <mxCell id="_TCGK150xfuwsQTXN8Ev-22" value="Event Handler " style="swimlane;html=1;startSize=20;" vertex="1" parent="_TCGK150xfuwsQTXN8Ev-1">
          <mxGeometry x="480" y="20" width="160" height="730" as="geometry" />
        </mxCell>
        <mxCell id="_TCGK150xfuwsQTXN8Ev-23" value="handleChange" style="rounded=1;whiteSpace=wrap;html=1;shadow=0;labelBackgroundColor=none;strokeWidth=1;fontFamily=Verdana;fontSize=12;align=center;" vertex="1" parent="_TCGK150xfuwsQTXN8Ev-22">
          <mxGeometry x="30" y="130" width="100" height="60" as="geometry" />
        </mxCell>
        <mxCell id="_TCGK150xfuwsQTXN8Ev-24" value="&lt;font style=&quot;font-size: 10px;&quot;&gt;setSearchAbsences&lt;/font&gt;" style="rounded=1;whiteSpace=wrap;html=1;shadow=0;labelBackgroundColor=none;strokeWidth=1;fontFamily=Verdana;fontSize=8;align=center;" vertex="1" parent="_TCGK150xfuwsQTXN8Ev-22">
          <mxGeometry x="30" y="40" width="100" height="60" as="geometry" />
        </mxCell>
        <mxCell id="_TCGK150xfuwsQTXN8Ev-25" value="handleSave" style="rounded=1;whiteSpace=wrap;html=1;shadow=0;labelBackgroundColor=none;strokeWidth=1;fontFamily=Verdana;fontSize=12;align=center;" vertex="1" parent="_TCGK150xfuwsQTXN8Ev-22">
          <mxGeometry x="30" y="480" width="100" height="60" as="geometry" />
        </mxCell>
        <mxCell id="_TCGK150xfuwsQTXN8Ev-26" value="handleUpdate" style="rounded=1;whiteSpace=wrap;html=1;shadow=0;labelBackgroundColor=none;strokeWidth=1;fontFamily=Verdana;fontSize=12;align=center;" vertex="1" parent="_TCGK150xfuwsQTXN8Ev-22">
          <mxGeometry x="30" y="390" width="100" height="60" as="geometry" />
        </mxCell>
        <mxCell id="_TCGK150xfuwsQTXN8Ev-27" value="handleSearch" style="rounded=1;whiteSpace=wrap;html=1;shadow=0;labelBackgroundColor=none;strokeWidth=1;fontFamily=Verdana;fontSize=12;align=center;" vertex="1" parent="_TCGK150xfuwsQTXN8Ev-22">
          <mxGeometry x="30" y="305" width="100" height="60" as="geometry" />
        </mxCell>
        <mxCell id="_TCGK150xfuwsQTXN8Ev-28" value="handleSubmit" style="rounded=1;whiteSpace=wrap;html=1;shadow=0;labelBackgroundColor=none;strokeWidth=1;fontFamily=Verdana;fontSize=12;align=center;" vertex="1" parent="_TCGK150xfuwsQTXN8Ev-22">
          <mxGeometry x="30" y="220" width="100" height="60" as="geometry" />
        </mxCell>
        <mxCell id="_TCGK150xfuwsQTXN8Ev-29" value="handleKeyPress" style="rounded=1;whiteSpace=wrap;html=1;shadow=0;labelBackgroundColor=none;strokeWidth=1;fontFamily=Verdana;fontSize=12;align=center;" vertex="1" parent="_TCGK150xfuwsQTXN8Ev-22">
          <mxGeometry x="30" y="570" width="100" height="60" as="geometry" />
        </mxCell>
        <mxCell id="_TCGK150xfuwsQTXN8Ev-30" value="handleDelete" style="rounded=1;whiteSpace=wrap;html=1;shadow=0;labelBackgroundColor=none;strokeWidth=1;fontFamily=Verdana;fontSize=12;align=center;" vertex="1" parent="_TCGK150xfuwsQTXN8Ev-22">
          <mxGeometry x="30" y="650" width="100" height="60" as="geometry" />
        </mxCell>
        <mxCell id="_TCGK150xfuwsQTXN8Ev-31" value="" style="edgeStyle=none;orthogonalLoop=1;jettySize=auto;html=1;rounded=0;shape=flexArrow;width=18.75;endSize=9.475;" edge="1" parent="_TCGK150xfuwsQTXN8Ev-22">
          <mxGeometry width="80" relative="1" as="geometry">
            <mxPoint x="-20" y="249.60000000000002" as="sourcePoint" />
            <mxPoint x="20" y="249.60000000000002" as="targetPoint" />
          </mxGeometry>
        </mxCell>
        <mxCell id="_TCGK150xfuwsQTXN8Ev-32" value="" style="edgeStyle=none;orthogonalLoop=1;jettySize=auto;html=1;rounded=0;shape=flexArrow;width=18.75;endSize=9.475;" edge="1" parent="_TCGK150xfuwsQTXN8Ev-22">
          <mxGeometry width="80" relative="1" as="geometry">
            <mxPoint x="140" y="249.6" as="sourcePoint" />
            <mxPoint x="180" y="249.6" as="targetPoint" />
          </mxGeometry>
        </mxCell>
        <mxCell id="_TCGK150xfuwsQTXN8Ev-33" value="Async Task Queue" style="swimlane;html=1;startSize=20;" vertex="1" parent="_TCGK150xfuwsQTXN8Ev-1">
          <mxGeometry x="640" y="20" width="160" height="730" as="geometry" />
        </mxCell>
        <mxCell id="_TCGK150xfuwsQTXN8Ev-34" value="asyncGet" style="rounded=1;whiteSpace=wrap;html=1;shadow=0;labelBackgroundColor=none;strokeWidth=1;fontFamily=Verdana;fontSize=15;align=center;" vertex="1" parent="_TCGK150xfuwsQTXN8Ev-33">
          <mxGeometry x="30" y="120" width="100" height="60" as="geometry" />
        </mxCell>
        <mxCell id="_TCGK150xfuwsQTXN8Ev-35" value="asyncPost" style="rounded=1;whiteSpace=wrap;html=1;shadow=0;labelBackgroundColor=none;strokeWidth=1;fontFamily=Verdana;fontSize=16;align=center;" vertex="1" parent="_TCGK150xfuwsQTXN8Ev-33">
          <mxGeometry x="30" y="230" width="100" height="60" as="geometry" />
        </mxCell>
        <mxCell id="_TCGK150xfuwsQTXN8Ev-36" value="asyncPut" style="rounded=1;whiteSpace=wrap;html=1;shadow=0;labelBackgroundColor=none;strokeWidth=1;fontFamily=Verdana;fontSize=17;align=center;" vertex="1" parent="_TCGK150xfuwsQTXN8Ev-33">
          <mxGeometry x="30" y="340" width="100" height="60" as="geometry" />
        </mxCell>
        <mxCell id="_TCGK150xfuwsQTXN8Ev-37" value="asyncDelete" style="rounded=1;whiteSpace=wrap;html=1;shadow=0;labelBackgroundColor=none;strokeWidth=1;fontFamily=Verdana;fontSize=15;align=center;" vertex="1" parent="_TCGK150xfuwsQTXN8Ev-33">
          <mxGeometry x="30" y="450" width="100" height="60" as="geometry" />
        </mxCell>
        <mxCell id="_TCGK150xfuwsQTXN8Ev-38" value="後端" style="swimlane;html=1;childLayout=stackLayout;startSize=20;rounded=0;shadow=0;labelBackgroundColor=none;strokeWidth=1;fontFamily=Verdana;fontSize=20;align=center;" vertex="1" parent="1">
          <mxGeometry x="1020" y="40" width="480" height="750" as="geometry" />
        </mxCell>
        <mxCell id="_TCGK150xfuwsQTXN8Ev-39" value="路由" style="swimlane;html=1;startSize=20;" vertex="1" parent="_TCGK150xfuwsQTXN8Ev-38">
          <mxGeometry y="20" width="160" height="730" as="geometry" />
        </mxCell>
        <mxCell id="_TCGK150xfuwsQTXN8Ev-40" value="&lt;font style=&quot;font-size: 15px;&quot;&gt;FindAll&lt;/font&gt;" style="rounded=1;whiteSpace=wrap;html=1;shadow=0;labelBackgroundColor=none;strokeWidth=1;fontFamily=Verdana;fontSize=20;align=center;" vertex="1" parent="_TCGK150xfuwsQTXN8Ev-39">
          <mxGeometry x="20" y="65" width="100" height="60" as="geometry" />
        </mxCell>
        <mxCell id="_TCGK150xfuwsQTXN8Ev-41" value="&lt;font style=&quot;font-size: 15px;&quot;&gt;InsertOne&lt;/font&gt;" style="rounded=1;whiteSpace=wrap;html=1;shadow=0;labelBackgroundColor=none;strokeWidth=1;fontFamily=Verdana;fontSize=20;align=center;" vertex="1" parent="_TCGK150xfuwsQTXN8Ev-39">
          <mxGeometry x="20" y="155" width="100" height="60" as="geometry" />
        </mxCell>
        <mxCell id="_TCGK150xfuwsQTXN8Ev-42" value="Delete ID" style="rounded=1;whiteSpace=wrap;html=1;shadow=0;labelBackgroundColor=none;strokeWidth=1;fontFamily=Verdana;fontSize=10;align=center;" vertex="1" parent="_TCGK150xfuwsQTXN8Ev-39">
          <mxGeometry x="20" y="365" width="100" height="60" as="geometry" />
        </mxCell>
        <mxCell id="_TCGK150xfuwsQTXN8Ev-43" value="Update ID" style="rounded=1;whiteSpace=wrap;html=1;shadow=0;labelBackgroundColor=none;strokeWidth=1;fontFamily=Verdana;fontSize=12;align=center;" vertex="1" parent="_TCGK150xfuwsQTXN8Ev-39">
          <mxGeometry x="20" y="260" width="100" height="60" as="geometry" />
        </mxCell>
        <mxCell id="_TCGK150xfuwsQTXN8Ev-44" value="" style="edgeStyle=none;orthogonalLoop=1;jettySize=auto;html=1;rounded=0;shape=flexArrow;width=11.25;endSize=4.199999999999999;" edge="1" parent="_TCGK150xfuwsQTXN8Ev-39">
          <mxGeometry width="80" relative="1" as="geometry">
            <mxPoint x="140" y="240" as="sourcePoint" />
            <mxPoint x="180" y="240" as="targetPoint" />
          </mxGeometry>
        </mxCell>
        <mxCell id="_TCGK150xfuwsQTXN8Ev-45" value="控制" style="swimlane;html=1;startSize=20;" vertex="1" parent="_TCGK150xfuwsQTXN8Ev-38">
          <mxGeometry x="160" y="20" width="160" height="730" as="geometry" />
        </mxCell>
        <mxCell id="_TCGK150xfuwsQTXN8Ev-46" value="&lt;font style=&quot;font-size: 15px;&quot;&gt;FindAll&lt;/font&gt;" style="rounded=1;whiteSpace=wrap;html=1;shadow=0;labelBackgroundColor=none;strokeWidth=1;fontFamily=Verdana;fontSize=20;align=center;" vertex="1" parent="_TCGK150xfuwsQTXN8Ev-45">
          <mxGeometry x="30" y="70" width="100" height="60" as="geometry" />
        </mxCell>
        <mxCell id="_TCGK150xfuwsQTXN8Ev-47" value="&lt;font style=&quot;font-size: 15px;&quot;&gt;InsertOne&lt;/font&gt;" style="rounded=1;whiteSpace=wrap;html=1;shadow=0;labelBackgroundColor=none;strokeWidth=1;fontFamily=Verdana;fontSize=20;align=center;" vertex="1" parent="_TCGK150xfuwsQTXN8Ev-45">
          <mxGeometry x="30" y="155" width="100" height="60" as="geometry" />
        </mxCell>
        <mxCell id="_TCGK150xfuwsQTXN8Ev-48" value="Update ID" style="rounded=1;whiteSpace=wrap;html=1;shadow=0;labelBackgroundColor=none;strokeWidth=1;fontFamily=Verdana;fontSize=12;align=center;" vertex="1" parent="_TCGK150xfuwsQTXN8Ev-45">
          <mxGeometry x="30" y="260" width="100" height="60" as="geometry" />
        </mxCell>
        <mxCell id="_TCGK150xfuwsQTXN8Ev-49" value="Delete ID" style="rounded=1;whiteSpace=wrap;html=1;shadow=0;labelBackgroundColor=none;strokeWidth=1;fontFamily=Verdana;fontSize=10;align=center;" vertex="1" parent="_TCGK150xfuwsQTXN8Ev-45">
          <mxGeometry x="30" y="360" width="100" height="60" as="geometry" />
        </mxCell>
        <mxCell id="_TCGK150xfuwsQTXN8Ev-50" style="edgeStyle=orthogonalEdgeStyle;shape=flexArrow;rounded=0;orthogonalLoop=1;jettySize=auto;html=1;" edge="1" parent="_TCGK150xfuwsQTXN8Ev-38" source="_TCGK150xfuwsQTXN8Ev-51">
          <mxGeometry relative="1" as="geometry">
            <mxPoint x="650.0000000000005" y="385" as="targetPoint" />
          </mxGeometry>
        </mxCell>
        <mxCell id="_TCGK150xfuwsQTXN8Ev-51" value="服務" style="swimlane;html=1;startSize=20;" vertex="1" parent="_TCGK150xfuwsQTXN8Ev-38">
          <mxGeometry x="320" y="20" width="160" height="730" as="geometry" />
        </mxCell>
        <mxCell id="_TCGK150xfuwsQTXN8Ev-52" value="&lt;font style=&quot;font-size: 15px;&quot;&gt;InsertOne&lt;/font&gt;" style="rounded=1;whiteSpace=wrap;html=1;shadow=0;labelBackgroundColor=none;strokeWidth=1;fontFamily=Verdana;fontSize=20;align=center;" vertex="1" parent="_TCGK150xfuwsQTXN8Ev-51">
          <mxGeometry x="30" y="155" width="100" height="60" as="geometry" />
        </mxCell>
        <mxCell id="_TCGK150xfuwsQTXN8Ev-53" value="Update ID" style="rounded=1;whiteSpace=wrap;html=1;shadow=0;labelBackgroundColor=none;strokeWidth=1;fontFamily=Verdana;fontSize=12;align=center;" vertex="1" parent="_TCGK150xfuwsQTXN8Ev-51">
          <mxGeometry x="30" y="260" width="100" height="60" as="geometry" />
        </mxCell>
        <mxCell id="_TCGK150xfuwsQTXN8Ev-54" value="Delete ID" style="rounded=1;whiteSpace=wrap;html=1;shadow=0;labelBackgroundColor=none;strokeWidth=1;fontFamily=Verdana;fontSize=10;align=center;" vertex="1" parent="_TCGK150xfuwsQTXN8Ev-51">
          <mxGeometry x="30" y="360" width="100" height="60" as="geometry" />
        </mxCell>
        <mxCell id="_TCGK150xfuwsQTXN8Ev-55" value="&lt;span&gt;getAllStudents&lt;/span&gt;" style="rounded=1;whiteSpace=wrap;html=1;shadow=0;labelBackgroundColor=none;strokeWidth=1;fontFamily=Verdana;fontSize=13;align=center;" vertex="1" parent="_TCGK150xfuwsQTXN8Ev-51">
          <mxGeometry x="30" y="70" width="100" height="60" as="geometry" />
        </mxCell>
        <mxCell id="_TCGK150xfuwsQTXN8Ev-56" value="" style="edgeStyle=none;orthogonalLoop=1;jettySize=auto;html=1;rounded=0;shape=flexArrow;width=11.25;endSize=4.199999999999999;" edge="1" parent="_TCGK150xfuwsQTXN8Ev-51">
          <mxGeometry width="80" relative="1" as="geometry">
            <mxPoint x="-20" y="240" as="sourcePoint" />
            <mxPoint x="20" y="240" as="targetPoint" />
          </mxGeometry>
        </mxCell>
        <mxCell id="_TCGK150xfuwsQTXN8Ev-57" value="" style="edgeStyle=orthogonalEdgeStyle;rounded=0;orthogonalLoop=1;jettySize=auto;html=1;entryX=0;entryY=0.5;entryDx=0;entryDy=0;" edge="1" parent="1" source="_TCGK150xfuwsQTXN8Ev-34" target="_TCGK150xfuwsQTXN8Ev-40">
          <mxGeometry relative="1" as="geometry">
            <mxPoint x="930" y="210" as="targetPoint" />
          </mxGeometry>
        </mxCell>
        <mxCell id="_TCGK150xfuwsQTXN8Ev-58" value="GET /api/v1/user/findall" style="edgeLabel;html=1;align=center;verticalAlign=middle;resizable=0;points=[];" vertex="1" connectable="0" parent="_TCGK150xfuwsQTXN8Ev-57">
          <mxGeometry x="-0.2715" y="1" relative="1" as="geometry">
            <mxPoint as="offset" />
          </mxGeometry>
        </mxCell>
        <mxCell id="_TCGK150xfuwsQTXN8Ev-59" style="edgeStyle=orthogonalEdgeStyle;rounded=0;orthogonalLoop=1;jettySize=auto;html=1;entryX=0;entryY=0.5;entryDx=0;entryDy=0;" edge="1" parent="1" source="_TCGK150xfuwsQTXN8Ev-35" target="_TCGK150xfuwsQTXN8Ev-41">
          <mxGeometry relative="1" as="geometry" />
        </mxCell>
        <mxCell id="_TCGK150xfuwsQTXN8Ev-60" value="POST /api/v1/user/insertOne" style="edgeLabel;html=1;align=center;verticalAlign=middle;resizable=0;points=[];" vertex="1" connectable="0" parent="_TCGK150xfuwsQTXN8Ev-59">
          <mxGeometry x="-0.2848" relative="1" as="geometry">
            <mxPoint as="offset" />
          </mxGeometry>
        </mxCell>
        <mxCell id="_TCGK150xfuwsQTXN8Ev-61" style="edgeStyle=orthogonalEdgeStyle;rounded=0;orthogonalLoop=1;jettySize=auto;html=1;exitX=1;exitY=0.5;exitDx=0;exitDy=0;entryX=0;entryY=0.5;entryDx=0;entryDy=0;" edge="1" parent="1" source="_TCGK150xfuwsQTXN8Ev-36" target="_TCGK150xfuwsQTXN8Ev-43">
          <mxGeometry relative="1" as="geometry" />
        </mxCell>
        <mxCell id="_TCGK150xfuwsQTXN8Ev-62" value="PUT /api/v1/user/updateID" style="edgeLabel;html=1;align=center;verticalAlign=middle;resizable=0;points=[];" vertex="1" connectable="0" parent="_TCGK150xfuwsQTXN8Ev-61">
          <mxGeometry x="-0.3236" y="3" relative="1" as="geometry">
            <mxPoint as="offset" />
          </mxGeometry>
        </mxCell>
        <mxCell id="_TCGK150xfuwsQTXN8Ev-63" style="edgeStyle=orthogonalEdgeStyle;rounded=0;orthogonalLoop=1;jettySize=auto;html=1;entryX=0;entryY=0.5;entryDx=0;entryDy=0;" edge="1" parent="1" source="_TCGK150xfuwsQTXN8Ev-37" target="_TCGK150xfuwsQTXN8Ev-42">
          <mxGeometry relative="1" as="geometry" />
        </mxCell>
        <mxCell id="_TCGK150xfuwsQTXN8Ev-64" value="DELETE /api/v1/user/deleteID" style="edgeLabel;html=1;align=center;verticalAlign=middle;resizable=0;points=[];" vertex="1" connectable="0" parent="_TCGK150xfuwsQTXN8Ev-63">
          <mxGeometry x="-0.3163" relative="1" as="geometry">
            <mxPoint as="offset" />
          </mxGeometry>
        </mxCell>
        <mxCell id="_TCGK150xfuwsQTXN8Ev-65" value="&lt;font style=&quot;font-size: 25px;&quot;&gt;資料庫&lt;/font&gt;" style="shape=stencil(xVfLboMwEPyWHvaYCtuhwJEQ+h8kcRsrLiCgTfr3tcFuQ4UfrSCREGJ3YTxrewYAkrXHoqaAgyOQLWCMwkCcRXxWcaDioq3pvhuSH0XDih2nQ6XtmupEz+zQKQxWHmnDOlklOQSpuEceJNtXZSlAWFW2o8pVXYAVrBTPBpcBTA3/OYpqgf9GO9ookkMW8LM/7GO4DDBaiO8YVrOfne98wGPGaKmFmw0Y/R+WZCJj2twk2xX702tTvZeHSTIPq5W8yEOIEWzWkCeQbCGVA4nK1BONVKJhonE4rV+tb103Tc0Pm00KSejBhnLO6pYaV97BSBuOidBL1VDj7H3fxDgffMiIZJnuGEOcQh7BJoJEXDzJfkXXhpY1Emdl3zXSjam+0XglLvhXXce6c0W8T+642CzX6dWVsVp3tYEVcbAid2EVOliFd2EVOVhFd2GVOFglt2GldZNAGkjFuIzB0x4Cqzno3Wmn5lB+b89WG7G7grCEeO1vD4sbg6nLhZXvOezc0vYcdm7teg47tzgnPy0MHxCOd6PXW/Hvul5U0RYtT6u4zw7/MH3iCw==);whiteSpace=wrap;html=1;strokeColor=#000000;" vertex="1" parent="1">
          <mxGeometry x="1690" y="370" width="120" height="120" as="geometry" />
        </mxCell>
        <mxCell id="_TCGK150xfuwsQTXN8Ev-66" value="" style="orthogonalLoop=1;jettySize=auto;html=1;rounded=0;entryX=0;entryY=1;entryDx=0;entryDy=0;shape=link;" edge="1" parent="1" target="_TCGK150xfuwsQTXN8Ev-65">
          <mxGeometry width="80" relative="1" as="geometry">
            <mxPoint x="1690" y="380" as="sourcePoint" />
            <mxPoint x="1690" y="480" as="targetPoint" />
          </mxGeometry>
        </mxCell>
        <mxCell id="_TCGK150xfuwsQTXN8Ev-67" value="" style="orthogonalLoop=1;jettySize=auto;html=1;rounded=0;entryX=0;entryY=1;entryDx=0;entryDy=0;shape=link;" edge="1" parent="1">
          <mxGeometry width="80" relative="1" as="geometry">
            <mxPoint x="1810" y="380" as="sourcePoint" />
            <mxPoint x="1810" y="490" as="targetPoint" />
          </mxGeometry>
        </mxCell>
      </root>
    </mxGraphModel>
  </diagram>
</mxfile>
